<mxfile host="65bd71144e">
    <diagram id="cv5FoXA2a4qS8OeoLavu" name="Page-1">
        <mxGraphModel dx="448" dy="354" grid="1" gridSize="10" guides="1" tooltips="1" connect="1" arrows="1" fold="1" page="1" pageScale="1" pageWidth="3300" pageHeight="2339" math="0" shadow="0">
            <root>
                <mxCell id="0"/>
                <mxCell id="1" parent="0"/>
                <mxCell id="2" value="Inicio&amp;nbsp;" style="rounded=1;whiteSpace=wrap;html=1;" parent="1" vertex="1">
                    <mxGeometry x="1740" y="80" width="120" height="40" as="geometry"/>
                </mxCell>
                <mxCell id="3" value="Encabezado" style="rounded=0;whiteSpace=wrap;html=1;" parent="1" vertex="1">
                    <mxGeometry x="1120" y="160" width="120" height="40" as="geometry"/>
                </mxCell>
                <mxCell id="104" style="edgeStyle=none;html=1;exitX=0.5;exitY=1;exitDx=0;exitDy=0;" edge="1" parent="1" source="4">
                    <mxGeometry relative="1" as="geometry">
                        <mxPoint x="1800" y="220" as="targetPoint"/>
                        <Array as="points"/>
                    </mxGeometry>
                </mxCell>
                <mxCell id="4" value="Body" style="rounded=0;whiteSpace=wrap;html=1;" parent="1" vertex="1">
                    <mxGeometry x="1740" y="150" width="120" height="40" as="geometry"/>
                </mxCell>
                <mxCell id="5" value="Footer" style="rounded=0;whiteSpace=wrap;html=1;" parent="1" vertex="1">
                    <mxGeometry x="2000" y="150" width="120" height="40" as="geometry"/>
                </mxCell>
                <mxCell id="6" value="Barra de Navegación" style="rounded=0;whiteSpace=wrap;html=1;" parent="1" vertex="1">
                    <mxGeometry x="1090" y="220" width="170" height="30" as="geometry"/>
                </mxCell>
                <mxCell id="7" value="Informate" style="rounded=0;whiteSpace=wrap;html=1;" parent="1" vertex="1">
                    <mxGeometry x="1110" y="270" width="150" height="30" as="geometry"/>
                </mxCell>
                <mxCell id="10" value="Participá&amp;nbsp;" style="rounded=0;whiteSpace=wrap;html=1;" parent="1" vertex="1">
                    <mxGeometry x="1110" y="470" width="150" height="30" as="geometry"/>
                </mxCell>
                <mxCell id="11" value="Conocenos&amp;nbsp;" style="rounded=0;whiteSpace=wrap;html=1;" parent="1" vertex="1">
                    <mxGeometry x="1110" y="770" width="150" height="30" as="geometry"/>
                </mxCell>
                <mxCell id="12" value="Preguntas Frecuentes" style="rounded=0;whiteSpace=wrap;html=1;" parent="1" vertex="1">
                    <mxGeometry x="1120" y="810" width="140" height="20" as="geometry"/>
                </mxCell>
                <mxCell id="15" value="Contacto" style="rounded=0;whiteSpace=wrap;html=1;" parent="1" vertex="1">
                    <mxGeometry x="1120" y="840" width="140" height="20" as="geometry"/>
                </mxCell>
                <mxCell id="16" value="" style="endArrow=none;html=1;" parent="1" edge="1">
                    <mxGeometry width="50" height="50" relative="1" as="geometry">
                        <mxPoint x="1100" y="790" as="sourcePoint"/>
                        <mxPoint x="1110" y="790" as="targetPoint"/>
                    </mxGeometry>
                </mxCell>
                <mxCell id="17" value="" style="endArrow=none;html=1;" parent="1" edge="1">
                    <mxGeometry width="50" height="50" relative="1" as="geometry">
                        <mxPoint x="1100" y="850" as="sourcePoint"/>
                        <mxPoint x="1100" y="790" as="targetPoint"/>
                    </mxGeometry>
                </mxCell>
                <mxCell id="18" value="" style="endArrow=classic;html=1;entryX=0;entryY=0.5;entryDx=0;entryDy=0;" parent="1" target="12" edge="1">
                    <mxGeometry width="50" height="50" relative="1" as="geometry">
                        <mxPoint x="1100" y="820" as="sourcePoint"/>
                        <mxPoint x="1120" y="830" as="targetPoint"/>
                        <Array as="points">
                            <mxPoint x="1120" y="820"/>
                        </Array>
                    </mxGeometry>
                </mxCell>
                <mxCell id="19" value="" style="endArrow=classic;html=1;" parent="1" edge="1">
                    <mxGeometry width="50" height="50" relative="1" as="geometry">
                        <mxPoint x="1100" y="849.8199999999999" as="sourcePoint"/>
                        <mxPoint x="1120" y="850" as="targetPoint"/>
                        <Array as="points">
                            <mxPoint x="1120.6" y="849.8199999999999"/>
                        </Array>
                    </mxGeometry>
                </mxCell>
                <mxCell id="20" value="Donaciones&amp;nbsp;" style="rounded=0;whiteSpace=wrap;html=1;" parent="1" vertex="1">
                    <mxGeometry x="1120" y="510" width="140" height="20" as="geometry"/>
                </mxCell>
                <mxCell id="21" value="Voluntariados" style="rounded=0;whiteSpace=wrap;html=1;" parent="1" vertex="1">
                    <mxGeometry x="1120" y="540" width="140" height="20" as="geometry"/>
                </mxCell>
                <mxCell id="22" value="" style="endArrow=none;html=1;" parent="1" edge="1">
                    <mxGeometry width="50" height="50" relative="1" as="geometry">
                        <mxPoint x="1100" y="580" as="sourcePoint"/>
                        <mxPoint x="1100" y="490" as="targetPoint"/>
                    </mxGeometry>
                </mxCell>
                <mxCell id="24" value="" style="endArrow=none;html=1;entryX=-0.001;entryY=0.659;entryDx=0;entryDy=0;entryPerimeter=0;" parent="1" target="10" edge="1">
                    <mxGeometry width="50" height="50" relative="1" as="geometry">
                        <mxPoint x="1100" y="490" as="sourcePoint"/>
                        <mxPoint x="1150" y="530" as="targetPoint"/>
                    </mxGeometry>
                </mxCell>
                <mxCell id="25" value="" style="endArrow=classic;html=1;entryX=0;entryY=0.5;entryDx=0;entryDy=0;" parent="1" target="20" edge="1">
                    <mxGeometry width="50" height="50" relative="1" as="geometry">
                        <mxPoint x="1100" y="520" as="sourcePoint"/>
                        <mxPoint x="1140" y="490" as="targetPoint"/>
                    </mxGeometry>
                </mxCell>
                <mxCell id="26" value="" style="endArrow=classic;html=1;entryX=0;entryY=0.5;entryDx=0;entryDy=0;" parent="1" target="21" edge="1">
                    <mxGeometry width="50" height="50" relative="1" as="geometry">
                        <mxPoint x="1100" y="550" as="sourcePoint"/>
                        <mxPoint x="1110" y="520" as="targetPoint"/>
                    </mxGeometry>
                </mxCell>
                <mxCell id="27" value="Recursos" style="rounded=0;whiteSpace=wrap;html=1;" parent="1" vertex="1">
                    <mxGeometry x="1110" y="310" width="150" height="30" as="geometry"/>
                </mxCell>
                <mxCell id="28" value="Historias" style="rounded=0;whiteSpace=wrap;html=1;" parent="1" vertex="1">
                    <mxGeometry x="1110" y="720" width="150" height="30" as="geometry"/>
                </mxCell>
                <mxCell id="29" value="Noticias" style="rounded=0;whiteSpace=wrap;html=1;" parent="1" vertex="1">
                    <mxGeometry x="1110" y="610" width="150" height="30" as="geometry"/>
                </mxCell>
                <mxCell id="30" value="Acesoramiento Legal&amp;nbsp;" style="rounded=0;whiteSpace=wrap;html=1;" parent="1" vertex="1">
                    <mxGeometry x="1120" y="350" width="140" height="20" as="geometry"/>
                </mxCell>
                <mxCell id="31" value="Asistencia Psicologica" style="rounded=0;whiteSpace=wrap;html=1;" parent="1" vertex="1">
                    <mxGeometry x="1120" y="380" width="140" height="20" as="geometry"/>
                </mxCell>
                <mxCell id="32" value="Centros de Protección&amp;nbsp;" style="rounded=0;whiteSpace=wrap;html=1;" parent="1" vertex="1">
                    <mxGeometry x="1120" y="410" width="140" height="20" as="geometry"/>
                </mxCell>
                <mxCell id="33" value="" style="endArrow=none;html=1;entryX=-0.001;entryY=0.67;entryDx=0;entryDy=0;entryPerimeter=0;" parent="1" target="27" edge="1">
                    <mxGeometry width="50" height="50" relative="1" as="geometry">
                        <mxPoint x="1100" y="330" as="sourcePoint"/>
                        <mxPoint x="1110" y="320" as="targetPoint"/>
                    </mxGeometry>
                </mxCell>
                <mxCell id="34" value="" style="endArrow=none;html=1;" parent="1" edge="1">
                    <mxGeometry width="50" height="50" relative="1" as="geometry">
                        <mxPoint x="1100" y="450" as="sourcePoint"/>
                        <mxPoint x="1100" y="330" as="targetPoint"/>
                    </mxGeometry>
                </mxCell>
                <mxCell id="35" value="" style="endArrow=classic;html=1;entryX=0;entryY=0.5;entryDx=0;entryDy=0;" parent="1" target="30" edge="1">
                    <mxGeometry width="50" height="50" relative="1" as="geometry">
                        <mxPoint x="1100" y="360" as="sourcePoint"/>
                        <mxPoint x="1160" y="360" as="targetPoint"/>
                    </mxGeometry>
                </mxCell>
                <mxCell id="36" value="" style="endArrow=classic;html=1;" parent="1" target="31" edge="1">
                    <mxGeometry width="50" height="50" relative="1" as="geometry">
                        <mxPoint x="1100" y="390" as="sourcePoint"/>
                        <mxPoint x="1160" y="360" as="targetPoint"/>
                    </mxGeometry>
                </mxCell>
                <mxCell id="37" value="" style="endArrow=classic;html=1;entryX=0;entryY=0.5;entryDx=0;entryDy=0;" parent="1" target="32" edge="1">
                    <mxGeometry width="50" height="50" relative="1" as="geometry">
                        <mxPoint x="1100" y="420" as="sourcePoint"/>
                        <mxPoint x="1160" y="360" as="targetPoint"/>
                    </mxGeometry>
                </mxCell>
                <mxCell id="38" value="Campañas" style="rounded=0;whiteSpace=wrap;html=1;" parent="1" vertex="1">
                    <mxGeometry x="1120" y="570" width="140" height="20" as="geometry"/>
                </mxCell>
                <mxCell id="39" value="" style="endArrow=classic;html=1;entryX=0;entryY=0.5;entryDx=0;entryDy=0;" parent="1" edge="1">
                    <mxGeometry width="50" height="50" relative="1" as="geometry">
                        <mxPoint x="1100" y="579.86" as="sourcePoint"/>
                        <mxPoint x="1120" y="579.86" as="targetPoint"/>
                    </mxGeometry>
                </mxCell>
                <mxCell id="41" value="Noticias&amp;nbsp;" style="rounded=0;whiteSpace=wrap;html=1;" parent="1" vertex="1">
                    <mxGeometry x="1120" y="650" width="140" height="20" as="geometry"/>
                </mxCell>
                <mxCell id="42" value="Eventos" style="rounded=0;whiteSpace=wrap;html=1;" parent="1" vertex="1">
                    <mxGeometry x="1120" y="680" width="140" height="20" as="geometry"/>
                </mxCell>
                <mxCell id="43" value="" style="endArrow=none;html=1;entryX=0.002;entryY=0.67;entryDx=0;entryDy=0;entryPerimeter=0;" parent="1" target="29" edge="1">
                    <mxGeometry width="50" height="50" relative="1" as="geometry">
                        <mxPoint x="1100" y="630" as="sourcePoint"/>
                        <mxPoint x="1240" y="630" as="targetPoint"/>
                    </mxGeometry>
                </mxCell>
                <mxCell id="44" value="" style="endArrow=none;html=1;" parent="1" edge="1">
                    <mxGeometry width="50" height="50" relative="1" as="geometry">
                        <mxPoint x="1100" y="690" as="sourcePoint"/>
                        <mxPoint x="1100" y="630" as="targetPoint"/>
                    </mxGeometry>
                </mxCell>
                <mxCell id="45" value="" style="endArrow=classic;html=1;entryX=0;entryY=0.5;entryDx=0;entryDy=0;" parent="1" target="41" edge="1">
                    <mxGeometry width="50" height="50" relative="1" as="geometry">
                        <mxPoint x="1100" y="660" as="sourcePoint"/>
                        <mxPoint x="1140" y="670" as="targetPoint"/>
                    </mxGeometry>
                </mxCell>
                <mxCell id="46" value="" style="endArrow=classic;html=1;entryX=0;entryY=0.5;entryDx=0;entryDy=0;" parent="1" target="42" edge="1">
                    <mxGeometry width="50" height="50" relative="1" as="geometry">
                        <mxPoint x="1100" y="690" as="sourcePoint"/>
                        <mxPoint x="1150" y="680" as="targetPoint"/>
                    </mxGeometry>
                </mxCell>
                <mxCell id="48" value="" style="endArrow=classic;html=1;entryX=0.527;entryY=-0.01;entryDx=0;entryDy=0;exitX=0.5;exitY=1;exitDx=0;exitDy=0;entryPerimeter=0;" parent="1" source="3" target="6" edge="1">
                    <mxGeometry width="50" height="50" relative="1" as="geometry">
                        <mxPoint x="1280" y="230" as="sourcePoint"/>
                        <mxPoint x="1330" y="180" as="targetPoint"/>
                    </mxGeometry>
                </mxCell>
                <mxCell id="49" value="" style="endArrow=none;html=1;entryX=-0.001;entryY=0.332;entryDx=0;entryDy=0;entryPerimeter=0;" parent="1" target="6" edge="1">
                    <mxGeometry width="50" height="50" relative="1" as="geometry">
                        <mxPoint x="1080" y="230" as="sourcePoint"/>
                        <mxPoint x="1440" y="410" as="targetPoint"/>
                    </mxGeometry>
                </mxCell>
                <mxCell id="50" value="" style="endArrow=none;html=1;" parent="1" edge="1">
                    <mxGeometry width="50" height="50" relative="1" as="geometry">
                        <mxPoint x="1080" y="890" as="sourcePoint"/>
                        <mxPoint x="1080" y="230" as="targetPoint"/>
                    </mxGeometry>
                </mxCell>
                <mxCell id="51" value="" style="endArrow=classic;html=1;" parent="1" edge="1">
                    <mxGeometry width="50" height="50" relative="1" as="geometry">
                        <mxPoint x="1080" y="280" as="sourcePoint"/>
                        <mxPoint x="1110" y="280" as="targetPoint"/>
                    </mxGeometry>
                </mxCell>
                <mxCell id="52" value="" style="endArrow=classic;html=1;" parent="1" edge="1">
                    <mxGeometry width="50" height="50" relative="1" as="geometry">
                        <mxPoint x="1080" y="320" as="sourcePoint"/>
                        <mxPoint x="1110" y="320" as="targetPoint"/>
                    </mxGeometry>
                </mxCell>
                <mxCell id="53" value="" style="endArrow=classic;html=1;" parent="1" edge="1">
                    <mxGeometry width="50" height="50" relative="1" as="geometry">
                        <mxPoint x="1080" y="480" as="sourcePoint"/>
                        <mxPoint x="1110" y="480" as="targetPoint"/>
                    </mxGeometry>
                </mxCell>
                <mxCell id="54" value="" style="endArrow=classic;html=1;" parent="1" edge="1">
                    <mxGeometry width="50" height="50" relative="1" as="geometry">
                        <mxPoint x="1080" y="620" as="sourcePoint"/>
                        <mxPoint x="1110" y="620" as="targetPoint"/>
                    </mxGeometry>
                </mxCell>
                <mxCell id="55" value="" style="endArrow=classic;html=1;" parent="1" edge="1">
                    <mxGeometry width="50" height="50" relative="1" as="geometry">
                        <mxPoint x="1080" y="730" as="sourcePoint"/>
                        <mxPoint x="1110" y="730" as="targetPoint"/>
                    </mxGeometry>
                </mxCell>
                <mxCell id="56" value="" style="endArrow=classic;html=1;" parent="1" edge="1">
                    <mxGeometry width="50" height="50" relative="1" as="geometry">
                        <mxPoint x="1080" y="780" as="sourcePoint"/>
                        <mxPoint x="1110" y="780" as="targetPoint"/>
                    </mxGeometry>
                </mxCell>
                <mxCell id="57" value="Protcolos de actuación&amp;nbsp;" style="rounded=0;whiteSpace=wrap;html=1;" parent="1" vertex="1">
                    <mxGeometry x="1120" y="440" width="140" height="20" as="geometry"/>
                </mxCell>
                <mxCell id="58" value="" style="endArrow=classic;html=1;entryX=0;entryY=0.5;entryDx=0;entryDy=0;" parent="1" edge="1">
                    <mxGeometry width="50" height="50" relative="1" as="geometry">
                        <mxPoint x="1100" y="449.76" as="sourcePoint"/>
                        <mxPoint x="1120" y="449.76" as="targetPoint"/>
                    </mxGeometry>
                </mxCell>
                <mxCell id="59" value="Ingresa" style="rounded=0;whiteSpace=wrap;html=1;" parent="1" vertex="1">
                    <mxGeometry x="1290" y="220" width="170" height="30" as="geometry"/>
                </mxCell>
                <mxCell id="60" value="Barra de busqueda" style="rounded=0;whiteSpace=wrap;html=1;" parent="1" vertex="1">
                    <mxGeometry x="1480" y="220" width="170" height="30" as="geometry"/>
                </mxCell>
                <mxCell id="62" value="Nombre de usuario/correo:" style="shape=parallelogram;perimeter=parallelogramPerimeter;whiteSpace=wrap;html=1;fixedSize=1;size=10;" parent="1" vertex="1">
                    <mxGeometry x="1300" y="270" width="160" height="20" as="geometry"/>
                </mxCell>
                <mxCell id="63" value="Contraseña:&amp;nbsp;" style="shape=parallelogram;perimeter=parallelogramPerimeter;whiteSpace=wrap;html=1;fixedSize=1;size=10;" parent="1" vertex="1">
                    <mxGeometry x="1300" y="300" width="160" height="20" as="geometry"/>
                </mxCell>
                <mxCell id="66" value="¿Olvidaste tu contraseña?" style="rounded=0;whiteSpace=wrap;html=1;" parent="1" vertex="1">
                    <mxGeometry x="1300" y="330" width="160" height="20" as="geometry"/>
                </mxCell>
                <mxCell id="67" value="&lt;h1&gt;&lt;span style=&quot;background-color: initial; font-size: 12px; font-weight: normal;&quot;&gt;¿No tienes perfil digital?&lt;/span&gt;&lt;br&gt;&lt;/h1&gt;" style="text;html=1;strokeColor=none;fillColor=none;spacing=5;spacingTop=-20;whiteSpace=wrap;overflow=hidden;rounded=0;" parent="1" vertex="1">
                    <mxGeometry x="1290" y="360" width="155" height="40" as="geometry"/>
                </mxCell>
                <mxCell id="68" value="Registro" style="rounded=0;whiteSpace=wrap;html=1;" parent="1" vertex="1">
                    <mxGeometry x="1300" y="400" width="160" height="20" as="geometry"/>
                </mxCell>
                <mxCell id="70" value="" style="endArrow=none;html=1;" parent="1" edge="1">
                    <mxGeometry width="50" height="50" relative="1" as="geometry">
                        <mxPoint x="1280" y="410" as="sourcePoint"/>
                        <mxPoint x="1280" y="230" as="targetPoint"/>
                    </mxGeometry>
                </mxCell>
                <mxCell id="71" value="" style="endArrow=none;html=1;" parent="1" edge="1">
                    <mxGeometry width="50" height="50" relative="1" as="geometry">
                        <mxPoint x="1280" y="230" as="sourcePoint"/>
                        <mxPoint x="1290" y="230" as="targetPoint"/>
                    </mxGeometry>
                </mxCell>
                <mxCell id="72" value="" style="endArrow=classic;html=1;" parent="1" edge="1">
                    <mxGeometry width="50" height="50" relative="1" as="geometry">
                        <mxPoint x="1280" y="280" as="sourcePoint"/>
                        <mxPoint x="1300" y="280" as="targetPoint"/>
                    </mxGeometry>
                </mxCell>
                <mxCell id="73" value="" style="endArrow=classic;html=1;" parent="1" edge="1">
                    <mxGeometry width="50" height="50" relative="1" as="geometry">
                        <mxPoint x="1280" y="309.92" as="sourcePoint"/>
                        <mxPoint x="1300" y="309.92" as="targetPoint"/>
                    </mxGeometry>
                </mxCell>
                <mxCell id="74" value="" style="endArrow=classic;html=1;" parent="1" edge="1">
                    <mxGeometry width="50" height="50" relative="1" as="geometry">
                        <mxPoint x="1280" y="339.79999999999995" as="sourcePoint"/>
                        <mxPoint x="1300" y="339.79999999999995" as="targetPoint"/>
                    </mxGeometry>
                </mxCell>
                <mxCell id="75" value="" style="endArrow=classic;html=1;" parent="1" edge="1">
                    <mxGeometry width="50" height="50" relative="1" as="geometry">
                        <mxPoint x="1280" y="409.85999999999996" as="sourcePoint"/>
                        <mxPoint x="1300" y="409.85999999999996" as="targetPoint"/>
                    </mxGeometry>
                </mxCell>
                <mxCell id="76" value="Direccion de correo" style="rounded=0;whiteSpace=wrap;html=1;" parent="1" vertex="1">
                    <mxGeometry x="1310" y="440" width="150" height="20" as="geometry"/>
                </mxCell>
                <mxCell id="77" value="Contrseña" style="rounded=0;whiteSpace=wrap;html=1;" parent="1" vertex="1">
                    <mxGeometry x="1310" y="470" width="150" height="20" as="geometry"/>
                </mxCell>
                <mxCell id="78" value="Nombre de usuario" style="rounded=0;whiteSpace=wrap;html=1;" parent="1" vertex="1">
                    <mxGeometry x="1310" y="500" width="150" height="20" as="geometry"/>
                </mxCell>
                <mxCell id="80" value="" style="endArrow=none;html=1;entryX=0;entryY=1;entryDx=0;entryDy=0;" parent="1" target="68" edge="1">
                    <mxGeometry width="50" height="50" relative="1" as="geometry">
                        <mxPoint x="1290" y="420" as="sourcePoint"/>
                        <mxPoint x="1370" y="450" as="targetPoint"/>
                    </mxGeometry>
                </mxCell>
                <mxCell id="81" value="" style="endArrow=none;html=1;" parent="1" edge="1">
                    <mxGeometry width="50" height="50" relative="1" as="geometry">
                        <mxPoint x="1290" y="510" as="sourcePoint"/>
                        <mxPoint x="1290" y="420" as="targetPoint"/>
                    </mxGeometry>
                </mxCell>
                <mxCell id="82" value="" style="endArrow=classic;html=1;entryX=0;entryY=0.5;entryDx=0;entryDy=0;" parent="1" target="76" edge="1">
                    <mxGeometry width="50" height="50" relative="1" as="geometry">
                        <mxPoint x="1290" y="450" as="sourcePoint"/>
                        <mxPoint x="1320" y="450" as="targetPoint"/>
                    </mxGeometry>
                </mxCell>
                <mxCell id="83" value="" style="endArrow=classic;html=1;entryX=0;entryY=0.5;entryDx=0;entryDy=0;" parent="1" edge="1">
                    <mxGeometry width="50" height="50" relative="1" as="geometry">
                        <mxPoint x="1290" y="479.8399999999999" as="sourcePoint"/>
                        <mxPoint x="1310" y="479.8399999999999" as="targetPoint"/>
                    </mxGeometry>
                </mxCell>
                <mxCell id="84" value="" style="endArrow=classic;html=1;entryX=0;entryY=0.5;entryDx=0;entryDy=0;" parent="1" edge="1">
                    <mxGeometry width="50" height="50" relative="1" as="geometry">
                        <mxPoint x="1290" y="510" as="sourcePoint"/>
                        <mxPoint x="1310" y="510" as="targetPoint"/>
                    </mxGeometry>
                </mxCell>
                <mxCell id="85" value="" style="endArrow=none;html=1;" parent="1" edge="1">
                    <mxGeometry width="50" height="50" relative="1" as="geometry">
                        <mxPoint x="1180" y="130" as="sourcePoint"/>
                        <mxPoint x="2060" y="130" as="targetPoint"/>
                    </mxGeometry>
                </mxCell>
                <mxCell id="86" value="" style="endArrow=classic;html=1;exitX=0.5;exitY=1;exitDx=0;exitDy=0;entryX=0.5;entryY=0;entryDx=0;entryDy=0;" parent="1" source="2" target="4" edge="1">
                    <mxGeometry width="50" height="50" relative="1" as="geometry">
                        <mxPoint x="1780" y="170" as="sourcePoint"/>
                        <mxPoint x="1830" y="120" as="targetPoint"/>
                    </mxGeometry>
                </mxCell>
                <mxCell id="89" value="Politica de Pivacidad&amp;nbsp;" style="rounded=0;whiteSpace=wrap;html=1;" parent="1" vertex="1">
                    <mxGeometry x="1980" y="210" width="170" height="20" as="geometry"/>
                </mxCell>
                <mxCell id="90" value="Terminos y condiciones&amp;nbsp;" style="rounded=0;whiteSpace=wrap;html=1;" parent="1" vertex="1">
                    <mxGeometry x="1980" y="240" width="170" height="20" as="geometry"/>
                </mxCell>
                <mxCell id="91" value="Facebook" style="rounded=0;whiteSpace=wrap;html=1;" parent="1" vertex="1">
                    <mxGeometry x="1980" y="290" width="170" height="20" as="geometry"/>
                </mxCell>
                <mxCell id="92" value="Instagram" style="rounded=0;whiteSpace=wrap;html=1;" parent="1" vertex="1">
                    <mxGeometry x="1980" y="320" width="170" height="20" as="geometry"/>
                </mxCell>
                <mxCell id="93" value="Twitter" style="rounded=0;whiteSpace=wrap;html=1;" parent="1" vertex="1">
                    <mxGeometry x="1980" y="350" width="170" height="20" as="geometry"/>
                </mxCell>
                <mxCell id="94" value="Whatsapp" style="rounded=0;whiteSpace=wrap;html=1;" parent="1" vertex="1">
                    <mxGeometry x="1980" y="380" width="170" height="20" as="geometry"/>
                </mxCell>
                <mxCell id="95" value="&lt;h1&gt;&lt;span style=&quot;background-color: initial; font-size: 12px; font-weight: normal;&quot;&gt;-----Contacto-----&lt;/span&gt;&lt;br&gt;&lt;/h1&gt;" style="text;html=1;strokeColor=none;fillColor=none;spacing=5;spacingTop=-20;whiteSpace=wrap;overflow=hidden;rounded=0;" parent="1" vertex="1">
                    <mxGeometry x="1980" y="250" width="190" height="30" as="geometry"/>
                </mxCell>
                <mxCell id="96" value="" style="endArrow=none;html=1;exitX=0;exitY=0.5;exitDx=0;exitDy=0;" parent="1" source="5" edge="1">
                    <mxGeometry width="50" height="50" relative="1" as="geometry">
                        <mxPoint x="1970" y="300" as="sourcePoint"/>
                        <mxPoint x="1960" y="170" as="targetPoint"/>
                    </mxGeometry>
                </mxCell>
                <mxCell id="97" value="" style="endArrow=none;html=1;" parent="1" edge="1">
                    <mxGeometry width="50" height="50" relative="1" as="geometry">
                        <mxPoint x="1960" y="390" as="sourcePoint"/>
                        <mxPoint x="1960" y="170" as="targetPoint"/>
                    </mxGeometry>
                </mxCell>
                <mxCell id="98" value="" style="endArrow=classic;html=1;entryX=0;entryY=0.5;entryDx=0;entryDy=0;" parent="1" target="94" edge="1">
                    <mxGeometry width="50" height="50" relative="1" as="geometry">
                        <mxPoint x="1960" y="390" as="sourcePoint"/>
                        <mxPoint x="2020" y="420" as="targetPoint"/>
                    </mxGeometry>
                </mxCell>
                <mxCell id="99" value="" style="endArrow=classic;html=1;entryX=0;entryY=0.5;entryDx=0;entryDy=0;" parent="1" edge="1">
                    <mxGeometry width="50" height="50" relative="1" as="geometry">
                        <mxPoint x="1960" y="360" as="sourcePoint"/>
                        <mxPoint x="1980" y="360" as="targetPoint"/>
                    </mxGeometry>
                </mxCell>
                <mxCell id="100" value="" style="endArrow=classic;html=1;entryX=0;entryY=0.5;entryDx=0;entryDy=0;" parent="1" edge="1">
                    <mxGeometry width="50" height="50" relative="1" as="geometry">
                        <mxPoint x="1960" y="330" as="sourcePoint"/>
                        <mxPoint x="1980" y="330" as="targetPoint"/>
                    </mxGeometry>
                </mxCell>
                <mxCell id="101" value="" style="endArrow=classic;html=1;entryX=0;entryY=0.5;entryDx=0;entryDy=0;" parent="1" edge="1">
                    <mxGeometry width="50" height="50" relative="1" as="geometry">
                        <mxPoint x="1960" y="300" as="sourcePoint"/>
                        <mxPoint x="1980" y="300" as="targetPoint"/>
                    </mxGeometry>
                </mxCell>
                <mxCell id="102" value="" style="endArrow=classic;html=1;entryX=0;entryY=0.5;entryDx=0;entryDy=0;" parent="1" edge="1">
                    <mxGeometry width="50" height="50" relative="1" as="geometry">
                        <mxPoint x="1960" y="250" as="sourcePoint"/>
                        <mxPoint x="1980" y="250" as="targetPoint"/>
                    </mxGeometry>
                </mxCell>
                <mxCell id="103" value="" style="endArrow=classic;html=1;entryX=0;entryY=0.5;entryDx=0;entryDy=0;" parent="1" edge="1">
                    <mxGeometry width="50" height="50" relative="1" as="geometry">
                        <mxPoint x="1960" y="219.74" as="sourcePoint"/>
                        <mxPoint x="1980" y="219.74" as="targetPoint"/>
                    </mxGeometry>
                </mxCell>
                <mxCell id="105" value="Te escuchamos" style="rounded=0;whiteSpace=wrap;html=1;" vertex="1" parent="1">
                    <mxGeometry x="1710" y="220" width="170" height="30" as="geometry"/>
                </mxCell>
                <mxCell id="106" value="Nosotros" style="rounded=0;whiteSpace=wrap;html=1;" vertex="1" parent="1">
                    <mxGeometry x="1110" y="880" width="150" height="30" as="geometry"/>
                </mxCell>
                <mxCell id="108" value="" style="endArrow=classic;html=1;" edge="1" parent="1">
                    <mxGeometry width="50" height="50" relative="1" as="geometry">
                        <mxPoint x="1080" y="890" as="sourcePoint"/>
                        <mxPoint x="1110" y="890" as="targetPoint"/>
                    </mxGeometry>
                </mxCell>
                <mxCell id="110" value="Que hacemos" style="rounded=0;whiteSpace=wrap;html=1;" vertex="1" parent="1">
                    <mxGeometry x="1120" y="920" width="140" height="20" as="geometry"/>
                </mxCell>
                <mxCell id="111" value="Como lo hacemos" style="rounded=0;whiteSpace=wrap;html=1;" vertex="1" parent="1">
                    <mxGeometry x="1120" y="950" width="140" height="20" as="geometry"/>
                </mxCell>
                <mxCell id="112" value="" style="endArrow=none;html=1;" edge="1" parent="1">
                    <mxGeometry width="50" height="50" relative="1" as="geometry">
                        <mxPoint x="1100" y="900" as="sourcePoint"/>
                        <mxPoint x="1110" y="900" as="targetPoint"/>
                    </mxGeometry>
                </mxCell>
                <mxCell id="113" value="" style="endArrow=none;html=1;" edge="1" parent="1">
                    <mxGeometry width="50" height="50" relative="1" as="geometry">
                        <mxPoint x="1100" y="1020" as="sourcePoint"/>
                        <mxPoint x="1100" y="900" as="targetPoint"/>
                    </mxGeometry>
                </mxCell>
                <mxCell id="114" value="" style="endArrow=classic;html=1;entryX=0;entryY=0.5;entryDx=0;entryDy=0;" edge="1" parent="1" target="110">
                    <mxGeometry width="50" height="50" relative="1" as="geometry">
                        <mxPoint x="1100" y="930" as="sourcePoint"/>
                        <mxPoint x="1120" y="940" as="targetPoint"/>
                        <Array as="points">
                            <mxPoint x="1120" y="930"/>
                        </Array>
                    </mxGeometry>
                </mxCell>
                <mxCell id="115" value="" style="endArrow=classic;html=1;" edge="1" parent="1">
                    <mxGeometry width="50" height="50" relative="1" as="geometry">
                        <mxPoint x="1100" y="959.8199999999999" as="sourcePoint"/>
                        <mxPoint x="1120" y="960" as="targetPoint"/>
                        <Array as="points">
                            <mxPoint x="1120.6" y="959.8199999999999"/>
                        </Array>
                    </mxGeometry>
                </mxCell>
                <mxCell id="116" value="&lt;font style=&quot;font-size: 11px;&quot;&gt;Para quiénes&amp;nbsp; lo hacemos&lt;/font&gt;" style="rounded=0;whiteSpace=wrap;html=1;" vertex="1" parent="1">
                    <mxGeometry x="1120" y="980" width="140" height="20" as="geometry"/>
                </mxCell>
                <mxCell id="117" value="" style="endArrow=classic;html=1;" edge="1" parent="1">
                    <mxGeometry width="50" height="50" relative="1" as="geometry">
                        <mxPoint x="1100" y="989.8200000000002" as="sourcePoint"/>
                        <mxPoint x="1120" y="990" as="targetPoint"/>
                        <Array as="points">
                            <mxPoint x="1120.6" y="989.8199999999999"/>
                        </Array>
                    </mxGeometry>
                </mxCell>
                <mxCell id="118" value="Nuestro equipo&amp;nbsp;" style="rounded=0;whiteSpace=wrap;html=1;" vertex="1" parent="1">
                    <mxGeometry x="1120" y="1010" width="140" height="20" as="geometry"/>
                </mxCell>
                <mxCell id="119" value="" style="endArrow=classic;html=1;" edge="1" parent="1">
                    <mxGeometry width="50" height="50" relative="1" as="geometry">
                        <mxPoint x="1100" y="1019.8200000000002" as="sourcePoint"/>
                        <mxPoint x="1120" y="1020" as="targetPoint"/>
                        <Array as="points">
                            <mxPoint x="1120.6" y="1019.8199999999999"/>
                        </Array>
                    </mxGeometry>
                </mxCell>
                <mxCell id="123" value="Recopilar Pruebas" style="rounded=0;whiteSpace=wrap;html=1;" vertex="1" parent="1">
                    <mxGeometry x="1730" y="470" width="150" height="30" as="geometry"/>
                </mxCell>
                <mxCell id="131" value="Imágenes" style="rounded=0;whiteSpace=wrap;html=1;" vertex="1" parent="1">
                    <mxGeometry x="1740" y="530" width="140" height="20" as="geometry"/>
                </mxCell>
                <mxCell id="132" value="Videos" style="rounded=0;whiteSpace=wrap;html=1;" vertex="1" parent="1">
                    <mxGeometry x="1740" y="560" width="140" height="20" as="geometry"/>
                </mxCell>
                <mxCell id="133" value="" style="endArrow=none;html=1;" edge="1" parent="1">
                    <mxGeometry width="50" height="50" relative="1" as="geometry">
                        <mxPoint x="1720" y="600" as="sourcePoint"/>
                        <mxPoint x="1720" y="490" as="targetPoint"/>
                    </mxGeometry>
                </mxCell>
                <mxCell id="134" value="" style="endArrow=none;html=1;entryX=-0.001;entryY=0.659;entryDx=0;entryDy=0;entryPerimeter=0;" edge="1" parent="1" target="123">
                    <mxGeometry width="50" height="50" relative="1" as="geometry">
                        <mxPoint x="1720" y="490" as="sourcePoint"/>
                        <mxPoint x="1770" y="530" as="targetPoint"/>
                    </mxGeometry>
                </mxCell>
                <mxCell id="135" value="" style="endArrow=classic;html=1;entryX=0;entryY=0.5;entryDx=0;entryDy=0;" edge="1" parent="1" target="131">
                    <mxGeometry width="50" height="50" relative="1" as="geometry">
                        <mxPoint x="1720" y="540" as="sourcePoint"/>
                        <mxPoint x="1760" y="510" as="targetPoint"/>
                    </mxGeometry>
                </mxCell>
                <mxCell id="136" value="" style="endArrow=classic;html=1;entryX=0;entryY=0.5;entryDx=0;entryDy=0;" edge="1" parent="1" target="132">
                    <mxGeometry width="50" height="50" relative="1" as="geometry">
                        <mxPoint x="1720" y="570" as="sourcePoint"/>
                        <mxPoint x="1730" y="540" as="targetPoint"/>
                    </mxGeometry>
                </mxCell>
                <mxCell id="137" value="Registrar Incidentes" style="rounded=0;whiteSpace=wrap;html=1;" vertex="1" parent="1">
                    <mxGeometry x="1730" y="270" width="150" height="30" as="geometry"/>
                </mxCell>
                <mxCell id="140" value="Fechas" style="rounded=0;whiteSpace=wrap;html=1;" vertex="1" parent="1">
                    <mxGeometry x="1740" y="330" width="140" height="20" as="geometry"/>
                </mxCell>
                <mxCell id="141" value="Información Detallada" style="rounded=0;whiteSpace=wrap;html=1;" vertex="1" parent="1">
                    <mxGeometry x="1740" y="360" width="140" height="20" as="geometry"/>
                </mxCell>
                <mxCell id="142" value="Ubicación" style="rounded=0;whiteSpace=wrap;html=1;" vertex="1" parent="1">
                    <mxGeometry x="1740" y="390" width="140" height="20" as="geometry"/>
                </mxCell>
                <mxCell id="143" value="" style="endArrow=none;html=1;entryX=-0.001;entryY=0.67;entryDx=0;entryDy=0;entryPerimeter=0;" edge="1" parent="1" target="137">
                    <mxGeometry width="50" height="50" relative="1" as="geometry">
                        <mxPoint x="1720" y="290" as="sourcePoint"/>
                        <mxPoint x="1730" y="280" as="targetPoint"/>
                    </mxGeometry>
                </mxCell>
                <mxCell id="144" value="" style="endArrow=none;html=1;" edge="1" parent="1">
                    <mxGeometry width="50" height="50" relative="1" as="geometry">
                        <mxPoint x="1720" y="430" as="sourcePoint"/>
                        <mxPoint x="1720" y="290" as="targetPoint"/>
                    </mxGeometry>
                </mxCell>
                <mxCell id="145" value="" style="endArrow=classic;html=1;entryX=0;entryY=0.5;entryDx=0;entryDy=0;" edge="1" parent="1" target="140">
                    <mxGeometry width="50" height="50" relative="1" as="geometry">
                        <mxPoint x="1720" y="340" as="sourcePoint"/>
                        <mxPoint x="1780" y="340" as="targetPoint"/>
                    </mxGeometry>
                </mxCell>
                <mxCell id="146" value="" style="endArrow=classic;html=1;" edge="1" parent="1" target="141">
                    <mxGeometry width="50" height="50" relative="1" as="geometry">
                        <mxPoint x="1720" y="370" as="sourcePoint"/>
                        <mxPoint x="1780" y="340" as="targetPoint"/>
                    </mxGeometry>
                </mxCell>
                <mxCell id="147" value="" style="endArrow=classic;html=1;entryX=0;entryY=0.5;entryDx=0;entryDy=0;" edge="1" parent="1" target="142">
                    <mxGeometry width="50" height="50" relative="1" as="geometry">
                        <mxPoint x="1720" y="400" as="sourcePoint"/>
                        <mxPoint x="1780" y="340" as="targetPoint"/>
                    </mxGeometry>
                </mxCell>
                <mxCell id="148" value="Archivos" style="rounded=0;whiteSpace=wrap;html=1;" vertex="1" parent="1">
                    <mxGeometry x="1740" y="590" width="140" height="20" as="geometry"/>
                </mxCell>
                <mxCell id="149" value="" style="endArrow=classic;html=1;entryX=0;entryY=0.5;entryDx=0;entryDy=0;" edge="1" parent="1">
                    <mxGeometry width="50" height="50" relative="1" as="geometry">
                        <mxPoint x="1720" y="599.8600000000001" as="sourcePoint"/>
                        <mxPoint x="1740" y="599.8600000000001" as="targetPoint"/>
                    </mxGeometry>
                </mxCell>
                <mxCell id="156" value="" style="endArrow=none;html=1;entryX=-0.001;entryY=0.332;entryDx=0;entryDy=0;entryPerimeter=0;" edge="1" parent="1">
                    <mxGeometry width="50" height="50" relative="1" as="geometry">
                        <mxPoint x="1700" y="229.99999999999986" as="sourcePoint"/>
                        <mxPoint x="1709.8300000000004" y="229.95999999999978" as="targetPoint"/>
                    </mxGeometry>
                </mxCell>
                <mxCell id="157" value="" style="endArrow=none;html=1;" edge="1" parent="1">
                    <mxGeometry width="50" height="50" relative="1" as="geometry">
                        <mxPoint x="1700" y="800" as="sourcePoint"/>
                        <mxPoint x="1700" y="229.99999999999986" as="targetPoint"/>
                    </mxGeometry>
                </mxCell>
                <mxCell id="159" value="" style="endArrow=classic;html=1;" edge="1" parent="1">
                    <mxGeometry width="50" height="50" relative="1" as="geometry">
                        <mxPoint x="1700" y="280" as="sourcePoint"/>
                        <mxPoint x="1730" y="280" as="targetPoint"/>
                    </mxGeometry>
                </mxCell>
                <mxCell id="160" value="" style="endArrow=classic;html=1;" edge="1" parent="1">
                    <mxGeometry width="50" height="50" relative="1" as="geometry">
                        <mxPoint x="1700" y="480" as="sourcePoint"/>
                        <mxPoint x="1730" y="480" as="targetPoint"/>
                    </mxGeometry>
                </mxCell>
                <mxCell id="164" value="Cualquier otro detalle" style="rounded=0;whiteSpace=wrap;html=1;" vertex="1" parent="1">
                    <mxGeometry x="1740" y="420" width="140" height="20" as="geometry"/>
                </mxCell>
                <mxCell id="165" value="" style="endArrow=classic;html=1;entryX=0;entryY=0.5;entryDx=0;entryDy=0;" edge="1" parent="1">
                    <mxGeometry width="50" height="50" relative="1" as="geometry">
                        <mxPoint x="1720" y="429.76" as="sourcePoint"/>
                        <mxPoint x="1740" y="429.76" as="targetPoint"/>
                    </mxGeometry>
                </mxCell>
                <mxCell id="178" value="&lt;h1 style=&quot;border-color: rgb(0, 0, 0); color: rgb(240, 240, 240); font-family: Helvetica; font-style: normal; font-variant-ligatures: normal; font-variant-caps: normal; letter-spacing: normal; orphans: 2; text-align: left; text-indent: 0px; text-transform: none; widows: 2; word-spacing: 0px; -webkit-text-stroke-width: 0px; background-color: rgb(42, 37, 47); text-decoration-thickness: initial; text-decoration-style: initial; text-decoration-color: initial;&quot;&gt;&lt;br&gt;&lt;/h1&gt;" style="text;whiteSpace=wrap;html=1;fontSize=11;" vertex="1" parent="1">
                    <mxGeometry x="1730" y="270" width="120" height="80" as="geometry"/>
                </mxCell>
                <mxCell id="179" value="-----Datos----" style="text;html=1;strokeColor=none;fillColor=none;align=center;verticalAlign=middle;whiteSpace=wrap;rounded=0;fontSize=11;" vertex="1" parent="1">
                    <mxGeometry x="1720" y="300" width="90" height="30" as="geometry"/>
                </mxCell>
                <mxCell id="180" value="-----Datos----" style="text;html=1;strokeColor=none;fillColor=none;align=center;verticalAlign=middle;whiteSpace=wrap;rounded=0;fontSize=11;" vertex="1" parent="1">
                    <mxGeometry x="1720" y="500" width="90" height="30" as="geometry"/>
                </mxCell>
                <mxCell id="181" value="Notificación de Emergencia" style="rounded=0;whiteSpace=wrap;html=1;" vertex="1" parent="1">
                    <mxGeometry x="1730" y="790" width="150" height="30" as="geometry"/>
                </mxCell>
                <mxCell id="182" value="Mensaje de Emergencia" style="rounded=0;whiteSpace=wrap;html=1;" vertex="1" parent="1">
                    <mxGeometry x="1740" y="830" width="140" height="20" as="geometry"/>
                </mxCell>
                <mxCell id="183" value="Confirmación" style="rounded=0;whiteSpace=wrap;html=1;" vertex="1" parent="1">
                    <mxGeometry x="1740" y="860" width="140" height="20" as="geometry"/>
                </mxCell>
                <mxCell id="184" value="" style="endArrow=none;html=1;" edge="1" parent="1">
                    <mxGeometry width="50" height="50" relative="1" as="geometry">
                        <mxPoint x="1720" y="870" as="sourcePoint"/>
                        <mxPoint x="1720" y="810" as="targetPoint"/>
                    </mxGeometry>
                </mxCell>
                <mxCell id="185" value="" style="endArrow=none;html=1;entryX=-0.001;entryY=0.659;entryDx=0;entryDy=0;entryPerimeter=0;" edge="1" parent="1" target="181">
                    <mxGeometry width="50" height="50" relative="1" as="geometry">
                        <mxPoint x="1720" y="810" as="sourcePoint"/>
                        <mxPoint x="1770" y="850" as="targetPoint"/>
                    </mxGeometry>
                </mxCell>
                <mxCell id="186" value="" style="endArrow=classic;html=1;entryX=0;entryY=0.5;entryDx=0;entryDy=0;" edge="1" parent="1" target="182">
                    <mxGeometry width="50" height="50" relative="1" as="geometry">
                        <mxPoint x="1720" y="840" as="sourcePoint"/>
                        <mxPoint x="1760" y="810" as="targetPoint"/>
                    </mxGeometry>
                </mxCell>
                <mxCell id="187" value="" style="endArrow=classic;html=1;entryX=0;entryY=0.5;entryDx=0;entryDy=0;" edge="1" parent="1" target="183">
                    <mxGeometry width="50" height="50" relative="1" as="geometry">
                        <mxPoint x="1720" y="870" as="sourcePoint"/>
                        <mxPoint x="1730" y="840" as="targetPoint"/>
                    </mxGeometry>
                </mxCell>
                <mxCell id="190" value="" style="endArrow=classic;html=1;" edge="1" parent="1">
                    <mxGeometry width="50" height="50" relative="1" as="geometry">
                        <mxPoint x="1700" y="800" as="sourcePoint"/>
                        <mxPoint x="1730" y="800" as="targetPoint"/>
                    </mxGeometry>
                </mxCell>
                <mxCell id="192" value="Recursos de Apoyo" style="rounded=0;whiteSpace=wrap;html=1;" vertex="1" parent="1">
                    <mxGeometry x="1730" y="640" width="150" height="30" as="geometry"/>
                </mxCell>
                <mxCell id="193" value="Foros de Apoyo" style="rounded=0;whiteSpace=wrap;html=1;" vertex="1" parent="1">
                    <mxGeometry x="1740" y="680" width="140" height="20" as="geometry"/>
                </mxCell>
                <mxCell id="194" value="Recursos Educativos" style="rounded=0;whiteSpace=wrap;html=1;" vertex="1" parent="1">
                    <mxGeometry x="1740" y="710" width="140" height="20" as="geometry"/>
                </mxCell>
                <mxCell id="195" value="" style="endArrow=none;html=1;" edge="1" parent="1">
                    <mxGeometry width="50" height="50" relative="1" as="geometry">
                        <mxPoint x="1720" y="750" as="sourcePoint"/>
                        <mxPoint x="1720" y="660" as="targetPoint"/>
                    </mxGeometry>
                </mxCell>
                <mxCell id="196" value="" style="endArrow=none;html=1;entryX=-0.001;entryY=0.659;entryDx=0;entryDy=0;entryPerimeter=0;" edge="1" parent="1" target="192">
                    <mxGeometry width="50" height="50" relative="1" as="geometry">
                        <mxPoint x="1720" y="660" as="sourcePoint"/>
                        <mxPoint x="1770" y="700" as="targetPoint"/>
                    </mxGeometry>
                </mxCell>
                <mxCell id="197" value="" style="endArrow=classic;html=1;entryX=0;entryY=0.5;entryDx=0;entryDy=0;" edge="1" parent="1" target="193">
                    <mxGeometry width="50" height="50" relative="1" as="geometry">
                        <mxPoint x="1720" y="690" as="sourcePoint"/>
                        <mxPoint x="1760" y="660" as="targetPoint"/>
                    </mxGeometry>
                </mxCell>
                <mxCell id="198" value="" style="endArrow=classic;html=1;entryX=0;entryY=0.5;entryDx=0;entryDy=0;" edge="1" parent="1" target="194">
                    <mxGeometry width="50" height="50" relative="1" as="geometry">
                        <mxPoint x="1720" y="720" as="sourcePoint"/>
                        <mxPoint x="1730" y="690" as="targetPoint"/>
                    </mxGeometry>
                </mxCell>
                <mxCell id="199" value="" style="endArrow=classic;html=1;" edge="1" parent="1">
                    <mxGeometry width="50" height="50" relative="1" as="geometry">
                        <mxPoint x="1700" y="650" as="sourcePoint"/>
                        <mxPoint x="1730" y="650" as="targetPoint"/>
                    </mxGeometry>
                </mxCell>
                <mxCell id="200" value="&lt;font style=&quot;font-size: 11px;&quot;&gt;Contactos de Emergencia&lt;/font&gt;" style="rounded=0;whiteSpace=wrap;html=1;" vertex="1" parent="1">
                    <mxGeometry x="1740" y="740" width="140" height="20" as="geometry"/>
                </mxCell>
                <mxCell id="201" value="" style="endArrow=classic;html=1;entryX=0;entryY=0.5;entryDx=0;entryDy=0;" edge="1" parent="1" target="200">
                    <mxGeometry width="50" height="50" relative="1" as="geometry">
                        <mxPoint x="1720" y="750" as="sourcePoint"/>
                        <mxPoint x="1730" y="720" as="targetPoint"/>
                    </mxGeometry>
                </mxCell>
                <mxCell id="202" value="" style="endArrow=classic;html=1;fontSize=11;" edge="1" parent="1">
                    <mxGeometry width="50" height="50" relative="1" as="geometry">
                        <mxPoint x="1180.1200000000001" y="130" as="sourcePoint"/>
                        <mxPoint x="1179.8300000000002" y="160" as="targetPoint"/>
                        <Array as="points">
                            <mxPoint x="1179.8300000000002" y="150"/>
                        </Array>
                    </mxGeometry>
                </mxCell>
                <mxCell id="204" value="" style="endArrow=classic;html=1;fontSize=11;" edge="1" parent="1">
                    <mxGeometry width="50" height="50" relative="1" as="geometry">
                        <mxPoint x="2060.1200000000003" y="130" as="sourcePoint"/>
                        <mxPoint x="2060" y="150" as="targetPoint"/>
                        <Array as="points">
                            <mxPoint x="2059.8300000000004" y="150"/>
                        </Array>
                    </mxGeometry>
                </mxCell>
            </root>
        </mxGraphModel>
    </diagram>
</mxfile>